# xmcd
#
# Track frame offsets:
#	150
#	12472
#	26724
#	39924
#	53500
#	66918
#	80780
#	95248
#	108015
#	121700
#	135079
#	149701
#	161945
#	174531
#	187372
#	201425
#	216026
#	232553
#	247897
#	262860
#	275165
#	289403
#	302460
#	315881
#	330658
#
# Disc length: 4581 seconds
#
# Revision: 4
# Processed by: cddbd v1.5.2PL0 Copyright (c) Steve Scherf et al.
# Submitted via: EasyCDDAExtractor 11.1.0.1
#
DISCID=6611e319
DTITLE=Various Artist - A Richer Tradition - Disc 3
DYEAR=2007
DGENRE=Blues
TTITLE0=Little Harvey Hull And Long "Cleve" Reed - Original Stack O'Lee Blues 
TTITLE0=(1927)
TTITLE1=Daddy Stovepipe And Whistlin' Pete - Tuxedo Blues (1927)
TTITLE2=Ed Bell - Mean Conductor Blues (1927)
TTITLE3=Emery Glen - Back Door Blues (1927)
TTITLE4=Lewis Black - Spanish Blues (1927)
TTITLE5=Mooch Richardson - Helena Blues (1928)
TTITLE6=Bogus Ben Covington - I Heard The Voice Of A Pork Chop (1928)
TTITLE7=George Carter - Rising River Blues (1929)
TTITLE8=Hambone Willie Newbern - She Could Toodle-Oo (1929)
TTITLE9=Willie Baker - Weak Minded Woman (1929)
TTITLE10=Lonnie Coleman - Old Rock Island Blues (1929)
TTITLE11=Henry Spaulding - Cairo Blues (1929)
TTITLE12=Mae Glover - I Ain't Givin' Nobody None (1929)
TTITLE13=Edward Thompson - Showers Of Rain Blues (1929)
TTITLE14=Eli Framer - Framer's Blues (1929)
TTITLE15=Luke Jordan - If I Call You Mama (1929)
TTITLE16=Willie Harris - Never Drive A Stranger From Your Door (1930)
TTITLE17=Alfred Lewis - Mississippi Swamp Moan (1930)
TTITLE18=Gitfiddle Jim - Paddlin' Madeline Blues (1930)
TTITLE19=Tommy Settlers - Shaking Wee Blues (1930)
TTITLE20=Willie Walker - South Carolina Rag (1930)
TTITLE21="Beans" Hambone And El Morrow - Beans (1931)
TTITLE22=Jack Gowdlock - Poor Jane Blues (1931)
TTITLE23=Tommie Bradley - Window Pane Blues (1932)
TTITLE24=George Carter - Hot Jelly Roll Blues (1929)
EXTD=
EXTT0=
EXTT1=
EXTT2=
EXTT3=
EXTT4=
EXTT5=
EXTT6=
EXTT7=
EXTT8=
EXTT9=
EXTT10=
EXTT11=
EXTT12=
EXTT13=
EXTT14=
EXTT15=
EXTT16=
EXTT17=
EXTT18=
EXTT19=
EXTT20=
EXTT21=
EXTT22=
EXTT23=
EXTT24=
PLAYORDER=
